<svg xmlns="http://www.w3.org/2000/svg" viewBox="0 0 500 500" width="500" height="500" aria-label="App icon"><path fill="#d20f25" d="M99.1 446.5v-51h89.4l-.2 11.1c-.5 21.6-3.4 33.5-11.5 46.8-15.1 25-42.3 41.1-73.8 43.7l-3.9.3v-51Zm.1-156.7c.1-83.1.2-83.8 1.1-89.9 3.7-22.3 10.5-40.8 21.9-58.9 17-27.2 43.9-49.1 74.1-60.4l7.2-2.7 1.9-2.8c11.5-17 17.4-24.4 29-36 16.3-16.5 34.8-28.8 53.1-35.6l2.6-1 2.9 4.8c1.6 2.6 4.5 7.3 6.4 10.3 1.9 3.1 3.4 5.6 3.3 5.7 0 0-2 .8-4.3 1.6-11.2 3.9-25.9 12.4-35.4 20.3-3.4 2.8-4.7 4.1-8.9 8.1-6.9 6.7-11.4 11.6-15.1 16.3l-1.5 2h7.9c13.7 0 24.6 1 35.3 3.1 32.4 6.4 62.7 23.9 83.7 48.4 20.3 23.7 32 50.6 35.9 82.2.3 2.2.6 10.8.8 19.2.3 14.2.2 15.6-.7 21.7-6.1 39.1-27.3 74.1-58.8 97.6-22.1 16.5-48 26.5-75.3 29.3-3.2.3-33.1.5-85.9.5H99.3v-83.8Zm145.6 2.1c17.9-2.7 33.3-13.8 41.7-30.1 4.5-8.8 5.9-15.3 5.5-26.3-.3-10.5-1.8-16.8-5.9-24.8-6.2-12.2-16.4-21.4-29.1-26.3-8-3.1-11.2-3.6-21.7-3.7-8.8 0-9.6 0-14 1.3-17.7 4.9-32.4 18.7-38.1 35.9-2.9 8.8-2.9 8-3.1 42.8l-.2 31.9h30c24.8 0 30.9-.1 34.9-.7"/></svg>